<?xml version="1.0" encoding="utf-8"?>
<!-- Generator: Adobe Illustrator 21.1.0, SVG Export Plug-In . SVG Version: 6.00 Build 0)  -->
<svg version="1.1" id="Layer_1" xmlns="http://www.w3.org/2000/svg" xmlns:xlink="http://www.w3.org/1999/xlink" x="0px" y="0px"
	 viewBox="0 0 54 54" style="enable-background:new 0 0 54 54;" xml:space="preserve">
<style type="text/css">
	.st0{fill:#36D6BF;}
	.st1{fill:#35C5D8;}
	.st2{fill:#3498DB;}
</style>
<g>
	<path class="st0" d="M48,19.5H6c-1.7,0-3-1.3-3-3v-3c0-1.7,1.3-3,3-3h42c1.7,0,3,1.3,3,3v3C51,18.2,49.7,19.5,48,19.5z"/>
	<path class="st1" d="M36,31.5H6c-1.7,0-3-1.3-3-3v-3c0-1.7,1.3-3,3-3h30c1.7,0,3,1.3,3,3v3C39,30.2,37.7,31.5,36,31.5z"/>
	<path class="st2" d="M24,43.5H6c-1.7,0-3-1.3-3-3v-3c0-1.7,1.3-3,3-3h18c1.7,0,3,1.3,3,3v3C27,42.2,25.7,43.5,24,43.5z"/>
</g>
</svg>
