<?xml version="1.0" encoding="utf-8"?>
<!-- Generator: Adobe Illustrator 21.1.0, SVG Export Plug-In . SVG Version: 6.00 Build 0)  -->
<svg version="1.1" id="Layer_1" xmlns="http://www.w3.org/2000/svg" xmlns:xlink="http://www.w3.org/1999/xlink" x="0px" y="0px"
	 viewBox="0 0 141.3 119.7" style="enable-background:new 0 0 141.3 119.7;" xml:space="preserve">
<style type="text/css">
	.st0{fill:#84FFFF;}
	.st1{fill:#00E5FF;}
	.st2{fill:#00B8D4;}
	.st3{fill:#1BE9E9;}
	.st4{enable-background:new    ;}
</style>
<path id="cz122kolT" class="st0" d="M82.4,0c5.5,0,10,4.5,10,10c0,14.8,0,49,0,63.8c0,5.5-4.5,10-10,10c-16.5,0-55.9,0-72.4,0
	c-5.5,0-10-4.5-10-10C0,59,0,24.8,0,10C0,4.5,4.5,0,10,0C26.5,0,65.9,0,82.4,0z"/>
<path id="aOn6yoGsh" class="st1" d="M117.5,10.9c3.7,0,6.8,3,6.8,6.8c0,1.5,0-0.7,0,0.8c0,3.7-3,6.8-6.8,6.8c-15.2,0-54.1,0-69.3,0
	c-3.7,0-6.8-3-6.8-6.8c0-1.5,0,0.8,0-0.8c0-3.7,3-6.8,6.8-6.8C63.4,10.9,102.3,10.9,117.5,10.9z"/>
<path id="a13EPDNEFO" class="st2" d="M107.4,34.8c3,0,5.4,2.4,5.4,5.4c0,1.8,0,1.6,0,3.4c0,3-2.4,5.4-5.4,5.4c-12.8,0-45.8,0-58.7,0
	c-3,0-5.4-2.4-5.4-5.4c0-1.8,0-1.6,0-3.4c0-3,2.4-5.4,5.4-5.4C61.6,34.8,94.6,34.8,107.4,34.8z"/>
<path id="a3mz9vFY8" class="st3" d="M119.7,58.6c3.6,0,6.4,2.9,6.4,6.4c0,1.6,0-0.1,0,1.4c0,3.6-2.9,6.4-6.4,6.4
	c-15.3,0-54.7,0-70,0c-3.6,0-6.4-2.9-6.4-6.4c0-1.6,0,0.1,0-1.4c0-3.6,2.9-6.4,6.4-6.4C65,58.6,104.5,58.6,119.7,58.6z"/>
<g class="st4">
	<path class="st2" d="M4.8,104c0.6,0.4,1.7,0.8,2.8,0.8c1.5,0,2.3-0.8,2.3-1.7c0-1-0.6-1.6-2.2-2.1c-2.1-0.7-3.1-1.9-3.1-3.3
		c0-1.9,1.5-3.4,4-3.4c1.2,0,2.2,0.3,2.9,0.7l-0.5,1.5c-0.5-0.3-1.3-0.7-2.4-0.7c-1.2,0-1.9,0.7-1.9,1.6c0,1,0.7,1.4,2.2,2
		c2,0.8,3,1.8,3,3.5c0,2-1.6,3.5-4.3,3.5c-1.3,0-2.4-0.3-3.3-0.8L4.8,104z"/>
	<path class="st2" d="M24.3,103c0,1.2,0,2.3,0.1,3.2h-1.9l-0.1-1.9h0c-0.6,0.9-1.8,2.2-3.8,2.2c-1.8,0-4-1-4-5.1v-6.8h2.1v6.4
		c0,2.2,0.7,3.7,2.6,3.7c1.4,0,2.4-1,2.8-1.9c0.1-0.3,0.2-0.7,0.2-1.1v-7.1h2.1V103z"/>
	<path class="st2" d="M27.8,98.1c0-1.4,0-2.5-0.1-3.6h1.8l0.1,2.3h0.1c0.5-1.6,1.8-2.5,3.2-2.5c0.2,0,0.4,0,0.6,0.1v2
		c-0.2,0-0.4-0.1-0.7-0.1c-1.5,0-2.5,1.1-2.8,2.7c0,0.3-0.1,0.6-0.1,1v6.2h-2.1V98.1z"/>
	<path class="st2" d="M37.1,94.5l2.3,6.5c0.4,1.1,0.7,2,0.9,3h0.1c0.3-1,0.6-1.9,1-3l2.3-6.5h2.2l-4.6,11.6h-2l-4.4-11.6H37.1z"/>
	<path class="st2" d="M48.7,100.7c0,2.9,1.9,4,4,4c1.5,0,2.4-0.3,3.2-0.6l0.4,1.5c-0.7,0.3-2,0.7-3.9,0.7c-3.6,0-5.7-2.4-5.7-5.9
		c0-3.5,2.1-6.3,5.4-6.3c3.8,0,4.8,3.3,4.8,5.5c0,0.4,0,0.8-0.1,1H48.7z M54.9,99.2c0-1.3-0.6-3.4-2.9-3.4c-2.1,0-3.1,2-3.2,3.4
		H54.9z"/>
	<path class="st2" d="M60.4,94.5l2.5,6.9c0.3,0.8,0.6,1.7,0.7,2.4h0c0.2-0.7,0.5-1.6,0.7-2.4l2.3-6.8H69l-3.2,8.3
		c-1.5,4-2.5,6-4,7.3c-1,0.9-2.1,1.3-2.6,1.4l-0.5-1.8c0.5-0.2,1.2-0.5,1.8-1c0.6-0.5,1.3-1.3,1.8-2.4c0.1-0.2,0.2-0.4,0.2-0.5
		s0-0.3-0.1-0.6L58,94.5H60.4z"/>
	<path class="st2" d="M70.5,104c0.6,0.4,1.7,0.8,2.8,0.8c1.5,0,2.3-0.8,2.3-1.7c0-1-0.6-1.6-2.2-2.1c-2.1-0.7-3.1-1.9-3.1-3.3
		c0-1.9,1.5-3.4,4-3.4c1.2,0,2.2,0.3,2.9,0.7l-0.5,1.5c-0.5-0.3-1.3-0.7-2.4-0.7c-1.2,0-1.9,0.7-1.9,1.6c0,1,0.7,1.4,2.2,2
		c2,0.8,3,1.8,3,3.5c0,2-1.6,3.5-4.3,3.5c-1.3,0-2.4-0.3-3.3-0.8L70.5,104z"/>
	<path class="st2" d="M88.5,105.7c-0.6,0.3-1.8,0.7-3.3,0.7c-3.5,0-5.8-2.4-5.8-5.9c0-3.6,2.4-6.2,6.2-6.2c1.2,0,2.4,0.3,2.9,0.6
		l-0.5,1.6c-0.5-0.3-1.3-0.6-2.4-0.6c-2.7,0-4.1,2-4.1,4.4c0,2.7,1.7,4.3,4,4.3c1.2,0,2-0.3,2.6-0.6L88.5,105.7z"/>
	<path class="st2" d="M91,98.1c0-1.4,0-2.5-0.1-3.6h1.8l0.1,2.3h0.1c0.5-1.6,1.8-2.5,3.2-2.5c0.2,0,0.4,0,0.6,0.1v2
		c-0.2,0-0.4-0.1-0.7-0.1c-1.5,0-2.5,1.1-2.8,2.7c0,0.3-0.1,0.6-0.1,1v6.2H91V98.1z"/>
	<path class="st2" d="M101.3,91.3c0,0.7-0.5,1.3-1.3,1.3c-0.7,0-1.3-0.6-1.3-1.3c0-0.7,0.6-1.3,1.3-1.3
		C100.8,89.9,101.3,90.5,101.3,91.3z M98.9,106.1V94.5h2.1v11.6H98.9z"/>
	<path class="st2" d="M104.5,106.1c0-0.8,0.1-2,0.1-3v-14h2.1v7.3h0c0.7-1.3,2.1-2.1,4-2.1c2.9,0,4.9,2.4,4.9,5.9
		c0,4.2-2.6,6.2-5.2,6.2c-1.7,0-3-0.6-3.9-2.2h-0.1l-0.1,1.9H104.5z M106.6,101.5c0,0.3,0,0.5,0.1,0.8c0.4,1.5,1.6,2.5,3.2,2.5
		c2.2,0,3.5-1.8,3.5-4.5c0-2.3-1.2-4.3-3.5-4.3c-1.4,0-2.8,1-3.2,2.6c0,0.2-0.1,0.5-0.1,0.9V101.5z"/>
	<path class="st2" d="M119.4,100.7c0,2.9,1.9,4,4,4c1.5,0,2.4-0.3,3.2-0.6l0.4,1.5c-0.7,0.3-2,0.7-3.9,0.7c-3.6,0-5.7-2.4-5.7-5.9
		c0-3.5,2.1-6.3,5.4-6.3c3.8,0,4.8,3.3,4.8,5.5c0,0.4,0,0.8-0.1,1H119.4z M125.6,99.2c0-1.3-0.6-3.4-2.9-3.4c-2.1,0-3.1,2-3.2,3.4
		H125.6z"/>
</g>
</svg>
