<?xml version="1.0" encoding="utf-8"?>
<!-- Generator: Adobe Illustrator 21.1.0, SVG Export Plug-In . SVG Version: 6.00 Build 0)  -->
<svg version="1.1" id="Layer_1" xmlns="http://www.w3.org/2000/svg" xmlns:xlink="http://www.w3.org/1999/xlink" x="0px" y="0px"
	 viewBox="0 0 280 54" style="enable-background:new 0 0 280 54;" xml:space="preserve">
<style type="text/css">
	.st0{fill:#36D6BF;}
	.st1{fill:#35C5D8;}
	.st2{fill:#3498DB;}
	.st3{fill:#2980B9;}
</style>
<g>
	<path class="st0" d="M54,19.5H12c-1.7,0-3-1.3-3-3v-3c0-1.7,1.3-3,3-3h42c1.7,0,3,1.3,3,3v3C57,18.2,55.7,19.5,54,19.5z"/>
	<path class="st1" d="M42,31.5H12c-1.7,0-3-1.3-3-3v-3c0-1.7,1.3-3,3-3h30c1.7,0,3,1.3,3,3v3C45,30.2,43.7,31.5,42,31.5z"/>
	<path class="st2" d="M30,43.5H12c-1.7,0-3-1.3-3-3v-3c0-1.7,1.3-3,3-3h18c1.7,0,3,1.3,3,3v3C33,42.2,31.7,43.5,30,43.5z"/>
</g>
<g>
	<path class="st3" d="M77.9,32.6c0.5,0.9,1.1,1.6,2,2c0.9,0.5,1.8,0.7,2.8,0.7c0.5,0,0.9-0.1,1.4-0.2c0.5-0.1,0.9-0.3,1.2-0.6
		c0.4-0.3,0.7-0.6,0.9-1c0.2-0.4,0.3-0.8,0.3-1.3c0-0.8-0.2-1.3-0.7-1.7c-0.5-0.4-1.1-0.7-1.8-0.9s-1.5-0.4-2.4-0.6
		s-1.7-0.4-2.4-0.7c-0.7-0.3-1.3-0.8-1.8-1.3s-0.7-1.4-0.7-2.4c0-0.8,0.2-1.5,0.5-2.1c0.3-0.6,0.8-1.1,1.3-1.5
		c0.5-0.4,1.1-0.7,1.8-0.9c0.7-0.2,1.4-0.3,2.1-0.3c1.4,0,2.5,0.3,3.5,0.8s1.8,1.3,2.3,2.4l-1.9,1.2c-0.4-0.8-0.9-1.3-1.5-1.7
		c-0.6-0.4-1.4-0.6-2.4-0.6c-0.4,0-0.8,0.1-1.2,0.2c-0.4,0.1-0.8,0.3-1.1,0.5s-0.6,0.5-0.8,0.8c-0.2,0.3-0.3,0.7-0.3,1.2
		c0,0.7,0.2,1.3,0.7,1.7c0.5,0.4,1.1,0.6,1.8,0.8s1.5,0.4,2.4,0.5c0.9,0.1,1.7,0.4,2.4,0.7s1.3,0.8,1.8,1.4s0.7,1.5,0.7,2.6
		c0,0.9-0.2,1.6-0.5,2.2c-0.3,0.6-0.8,1.2-1.3,1.6c-0.6,0.4-1.2,0.8-1.9,1c-0.7,0.2-1.5,0.3-2.3,0.3c-1.4,0-2.8-0.3-3.9-0.8
		c-1.2-0.6-2.1-1.4-2.8-2.6L77.9,32.6z"/>
	<path class="st3" d="M107.3,32.2c0,0.3,0,0.7,0,1.1c0,0.4,0,0.9,0.1,1.3c0,0.5,0,0.9,0.1,1.3c0,0.4,0,0.7,0,0.9h-2.2
		c0-0.6,0-1.2-0.1-1.8c0-0.6,0-0.9-0.1-1.1h-0.1c-0.4,0.9-1.2,1.7-2.2,2.4c-1,0.7-2.2,1-3.5,1c-1.3,0-2.4-0.2-3.2-0.6
		c-0.8-0.4-1.5-0.9-1.9-1.6s-0.8-1.4-1-2.3c-0.2-0.9-0.3-1.8-0.3-2.7v-9.9h2.2V30c0,0.7,0.1,1.3,0.2,2s0.3,1.2,0.6,1.7
		c0.3,0.5,0.7,0.9,1.3,1.2s1.2,0.4,2.1,0.4c0.8,0,1.5-0.1,2.2-0.4c0.7-0.3,1.3-0.7,1.8-1.3c0.5-0.6,0.9-1.3,1.2-2.1
		c0.3-0.9,0.5-1.9,0.5-3v-8.3h2.2V32.2z"/>
	<path class="st3" d="M113.2,24.9c0-0.3,0-0.7,0-1.1c0-0.4,0-0.9-0.1-1.4c0-0.5,0-0.9-0.1-1.3c0-0.4,0-0.7,0-0.9h2.2
		c0,0.6,0,1.2,0.1,1.8c0,0.6,0,0.9,0.1,1.1c0.6-1,1.3-1.8,2.1-2.4s1.9-0.9,3.2-0.9c0.2,0,0.4,0,0.6,0.1c0.2,0,0.4,0.1,0.6,0.1
		l-0.3,2.1c-0.3-0.1-0.6-0.1-0.8-0.1c-0.9,0-1.7,0.2-2.4,0.5c-0.7,0.3-1.2,0.7-1.7,1.2s-0.8,1.1-1,1.9c-0.2,0.7-0.3,1.5-0.3,2.3v9.1
		h-2.2V24.9z"/>
	<path class="st3" d="M122.9,20.2h2.4l5.5,14.3l5.4-14.3h2.2l-6.6,16.6h-2.2L122.9,20.2z"/>
	<path class="st3" d="M156.6,33.7c-0.8,1.3-1.9,2.2-3.1,2.7c-1.2,0.6-2.6,0.8-4.1,0.8c-1.3,0-2.4-0.2-3.5-0.6c-1-0.4-1.9-1-2.7-1.8
		c-0.7-0.8-1.3-1.7-1.7-2.8c-0.4-1.1-0.6-2.2-0.6-3.5c0-1.2,0.2-2.4,0.6-3.5c0.4-1.1,1-2,1.7-2.8c0.7-0.8,1.6-1.4,2.6-1.8
		c1-0.4,2.1-0.7,3.3-0.7c1.3,0,2.4,0.2,3.4,0.7c1,0.4,1.8,1,2.4,1.8c0.7,0.7,1.2,1.6,1.5,2.5c0.3,0.9,0.5,1.9,0.5,2.8v1.5h-14
		c0,0.5,0.1,1,0.3,1.7s0.5,1.4,1,2.1c0.5,0.7,1.1,1.2,1.9,1.7c0.8,0.5,1.8,0.7,3.1,0.7c1.1,0,2.2-0.3,3.2-0.8c1-0.5,1.8-1.2,2.4-2.2
		L156.6,33.7z M154.9,27.2c0-0.7-0.2-1.4-0.5-2.1c-0.3-0.6-0.7-1.2-1.2-1.7c-0.5-0.5-1.1-0.9-1.8-1.2c-0.7-0.3-1.5-0.4-2.2-0.4
		c-1.2,0-2.2,0.2-2.9,0.7c-0.8,0.5-1.4,1-1.9,1.7c-0.5,0.6-0.8,1.2-1,1.8s-0.3,1-0.3,1.2H154.9z"/>
	<path class="st3" d="M166.6,42c-0.4,1.1-1,1.9-1.7,2.6c-0.7,0.6-1.7,0.9-2.9,0.9c-0.4,0-0.7,0-1.1-0.1c-0.4-0.1-0.7-0.1-1-0.2
		l0.2-2c0.3,0.1,0.6,0.2,1,0.3s0.7,0.1,1,0.1c0.4,0,0.7-0.1,1-0.3s0.6-0.4,0.8-0.6c0.2-0.3,0.4-0.6,0.6-0.9c0.2-0.3,0.3-0.7,0.4-1
		l1.5-3.9l-6.8-16.7h2.4l5.5,14l5.4-14h2.3L166.6,42z"/>
	<path class="st3" d="M178.6,32.6c0.5,0.9,1.1,1.6,2,2c0.9,0.5,1.8,0.7,2.8,0.7c0.5,0,0.9-0.1,1.4-0.2c0.5-0.1,0.9-0.3,1.2-0.6
		c0.4-0.3,0.7-0.6,0.9-1c0.2-0.4,0.3-0.8,0.3-1.3c0-0.8-0.2-1.3-0.7-1.7c-0.5-0.4-1.1-0.7-1.8-0.9s-1.5-0.4-2.4-0.6
		s-1.7-0.4-2.4-0.7c-0.7-0.3-1.3-0.8-1.8-1.3s-0.7-1.4-0.7-2.4c0-0.8,0.2-1.5,0.5-2.1c0.3-0.6,0.8-1.1,1.3-1.5
		c0.5-0.4,1.1-0.7,1.8-0.9c0.7-0.2,1.4-0.3,2.1-0.3c1.4,0,2.5,0.3,3.5,0.8s1.8,1.3,2.3,2.4l-1.9,1.2c-0.4-0.8-0.9-1.3-1.5-1.7
		c-0.6-0.4-1.4-0.6-2.4-0.6c-0.4,0-0.8,0.1-1.2,0.2c-0.4,0.1-0.8,0.3-1.1,0.5s-0.6,0.5-0.8,0.8c-0.2,0.3-0.3,0.7-0.3,1.2
		c0,0.7,0.2,1.3,0.7,1.7c0.5,0.4,1.1,0.6,1.8,0.8s1.5,0.4,2.4,0.5c0.9,0.1,1.7,0.4,2.4,0.7s1.3,0.8,1.8,1.4s0.7,1.5,0.7,2.6
		c0,0.9-0.2,1.6-0.5,2.2c-0.3,0.6-0.8,1.2-1.3,1.6c-0.6,0.4-1.2,0.8-1.9,1c-0.7,0.2-1.5,0.3-2.3,0.3c-1.4,0-2.8-0.3-3.9-0.8
		c-1.2-0.6-2.1-1.4-2.8-2.6L178.6,32.6z"/>
	<path class="st3" d="M207.8,34.4c-0.8,1-1.7,1.7-2.8,2.2c-1,0.5-2.1,0.7-3.3,0.7c-1.3,0-2.4-0.2-3.5-0.6c-1.1-0.4-2-1-2.8-1.8
		c-0.8-0.8-1.4-1.7-1.8-2.8c-0.4-1.1-0.6-2.2-0.6-3.5c0-1.3,0.2-2.4,0.6-3.5c0.4-1.1,1-2,1.8-2.8c0.8-0.8,1.7-1.4,2.8-1.8
		c1.1-0.4,2.3-0.6,3.5-0.6c1.2,0,2.4,0.3,3.4,0.8s2,1.2,2.8,2.1l-1.7,1.3c-0.6-0.7-1.3-1.2-2.1-1.6c-0.7-0.4-1.5-0.6-2.4-0.6
		c-1,0-1.9,0.2-2.7,0.5c-0.8,0.4-1.5,0.8-2.1,1.5s-1,1.3-1.3,2.2s-0.5,1.7-0.5,2.6c0,0.9,0.2,1.8,0.5,2.6s0.7,1.5,1.3,2.2
		c0.6,0.6,1.3,1.1,2.1,1.5c0.8,0.4,1.7,0.5,2.7,0.5c0.9,0,1.7-0.2,2.5-0.6c0.8-0.4,1.4-1,2-1.7L207.8,34.4z"/>
	<path class="st3" d="M211.2,24.9c0-0.3,0-0.7,0-1.1c0-0.4,0-0.9-0.1-1.4c0-0.5,0-0.9-0.1-1.3c0-0.4,0-0.7,0-0.9h2.2
		c0,0.6,0,1.2,0.1,1.8c0,0.6,0,0.9,0.1,1.1c0.6-1,1.3-1.8,2.1-2.4s1.9-0.9,3.2-0.9c0.2,0,0.4,0,0.6,0.1c0.2,0,0.4,0.1,0.6,0.1
		l-0.3,2.1c-0.3-0.1-0.6-0.1-0.8-0.1c-0.9,0-1.7,0.2-2.4,0.5c-0.7,0.3-1.2,0.7-1.7,1.2s-0.8,1.1-1,1.9c-0.2,0.7-0.3,1.5-0.3,2.3v9.1
		h-2.2V24.9z"/>
	<path class="st3" d="M223,13.7c0-0.5,0.2-0.8,0.5-1.2c0.3-0.3,0.7-0.5,1.2-0.5c0.5,0,0.8,0.2,1.2,0.5c0.3,0.3,0.5,0.7,0.5,1.2
		c0,0.5-0.2,0.8-0.5,1.2c-0.3,0.3-0.7,0.5-1.2,0.5c-0.5,0-0.8-0.2-1.2-0.5C223.2,14.5,223,14.1,223,13.7z M223.6,20.2h2.2v16.6h-2.2
		V20.2z"/>
	<path class="st3" d="M231.4,9.7h2.2v13.5h0.1c0.3-0.6,0.8-1.1,1.3-1.5s1-0.8,1.6-1c0.6-0.3,1.2-0.5,1.9-0.6
		c0.6-0.1,1.3-0.2,1.9-0.2c1.3,0,2.4,0.2,3.5,0.6c1.1,0.4,2,1,2.8,1.8c0.8,0.8,1.4,1.7,1.8,2.8c0.4,1.1,0.6,2.2,0.6,3.5
		c0,1.3-0.2,2.4-0.6,3.5c-0.4,1.1-1,2-1.8,2.8c-0.8,0.8-1.7,1.4-2.8,1.8c-1.1,0.4-2.2,0.6-3.5,0.6c-0.6,0-1.3-0.1-1.9-0.2
		c-0.6-0.1-1.3-0.3-1.9-0.6c-0.6-0.3-1.1-0.6-1.6-1s-0.9-0.9-1.3-1.5h-0.1v2.9h-2.2V9.7z M233.3,28.6c0,0.9,0.2,1.8,0.5,2.6
		c0.4,0.8,0.9,1.5,1.5,2.2c0.6,0.6,1.4,1.1,2.2,1.5c0.8,0.4,1.8,0.5,2.7,0.5c1,0,1.9-0.2,2.7-0.5c0.8-0.4,1.5-0.8,2.1-1.5
		c0.6-0.6,1-1.3,1.3-2.2c0.3-0.8,0.4-1.7,0.4-2.6c0-0.9-0.1-1.8-0.4-2.6c-0.3-0.8-0.7-1.5-1.3-2.2s-1.3-1.1-2.1-1.5
		c-0.8-0.4-1.7-0.5-2.7-0.5c-1,0-1.9,0.2-2.7,0.5c-0.8,0.4-1.6,0.8-2.2,1.5s-1.1,1.3-1.5,2.2C233.5,26.7,233.3,27.6,233.3,28.6z"/>
	<path class="st3" d="M268.5,33.7c-0.8,1.3-1.9,2.2-3.1,2.7c-1.2,0.6-2.6,0.8-4.1,0.8c-1.3,0-2.4-0.2-3.5-0.6c-1-0.4-1.9-1-2.7-1.8
		c-0.7-0.8-1.3-1.7-1.7-2.8c-0.4-1.1-0.6-2.2-0.6-3.5c0-1.2,0.2-2.4,0.6-3.5c0.4-1.1,1-2,1.7-2.8c0.7-0.8,1.6-1.4,2.6-1.8
		c1-0.4,2.1-0.7,3.3-0.7c1.3,0,2.4,0.2,3.4,0.7c1,0.4,1.8,1,2.4,1.8c0.7,0.7,1.2,1.6,1.5,2.5c0.3,0.9,0.5,1.9,0.5,2.8v1.5h-14
		c0,0.5,0.1,1,0.3,1.7s0.5,1.4,1,2.1c0.5,0.7,1.1,1.2,1.9,1.7c0.8,0.5,1.8,0.7,3.1,0.7c1.1,0,2.2-0.3,3.2-0.8c1-0.5,1.8-1.2,2.4-2.2
		L268.5,33.7z M266.9,27.2c0-0.7-0.2-1.4-0.5-2.1c-0.3-0.6-0.7-1.2-1.2-1.7c-0.5-0.5-1.1-0.9-1.8-1.2c-0.7-0.3-1.5-0.4-2.2-0.4
		c-1.2,0-2.2,0.2-2.9,0.7c-0.8,0.5-1.4,1-1.9,1.7c-0.5,0.6-0.8,1.2-1,1.8s-0.3,1-0.3,1.2H266.9z"/>
</g>
</svg>
