<?xml version="1.0" encoding="utf-8"?>
<!-- Generator: Adobe Illustrator 21.1.0, SVG Export Plug-In . SVG Version: 6.00 Build 0)  -->
<svg version="1.1" id="Layer_1" xmlns="http://www.w3.org/2000/svg" xmlns:xlink="http://www.w3.org/1999/xlink" x="0px" y="0px"
	 viewBox="0 0 114 114" style="enable-background:new 0 0 114 114;" xml:space="preserve">
<style type="text/css">
	.st0{fill:#FFFFFF;}
</style>
<g>
	<path class="st0" d="M57,106.5C29.7,106.5,7.5,84.3,7.5,57C7.5,29.7,29.7,7.5,57,7.5c27.3,0,49.5,22.2,49.5,49.5
		C106.5,84.3,84.3,106.5,57,106.5z M57,10.5c-25.6,0-46.5,20.9-46.5,46.5c0,25.6,20.9,46.5,46.5,46.5c25.6,0,46.5-20.9,46.5-46.5
		C103.5,31.4,82.6,10.5,57,10.5z"/>
	<g>
		<path class="st0" d="M78,49.5H36c-1.7,0-3-1.3-3-3v-3c0-1.7,1.3-3,3-3h42c1.7,0,3,1.3,3,3v3C81,48.2,79.7,49.5,78,49.5z"/>
		<path class="st0" d="M66,61.5H36c-1.7,0-3-1.3-3-3v-3c0-1.7,1.3-3,3-3h30c1.7,0,3,1.3,3,3v3C69,60.2,67.7,61.5,66,61.5z"/>
		<path class="st0" d="M54,73.5H36c-1.7,0-3-1.3-3-3v-3c0-1.7,1.3-3,3-3h18c1.7,0,3,1.3,3,3v3C57,72.2,55.7,73.5,54,73.5z"/>
	</g>
</g>
</svg>
